<svg xmlns="http://www.w3.org/2000/svg" viewBox="0 0 1400 626">
    <g transform="matrix(1,0,0,1,-800,-613.957)">
        <g transform="matrix(0.530523,0,0,0.530523,1087.84,216.484)">
            <path d="M644.136,1004.94C644.136,1004.94 707.332,967.282 778.263,1051.71C775.037,993.409 832.004,925.895 832.197,879.249C832.197,840.75 813.653,817.271 767.836,814.283C686.98,809.011 686.604,885.873 689.862,903.254C694.411,927.523 713.535,938.111 734.003,938.166C777.876,938.283 777.169,875.063 748.663,881.719C741.171,883.468 740.423,890.775 740.655,902.792C737.541,902.543 729.108,896.588 729.982,880.222C730.61,868.455 742.068,859.536 752.24,859.337C772.815,858.932 802.536,872.598 793.213,921.288C787.915,948.953 766.398,970.662 743.7,972.603C701.481,976.213 655.171,947.285 646.951,892.767C634.868,812.64 688.92,765.263 741.986,754.156C840.554,733.527 903.859,780.203 909.369,842.533C915.953,917.019 798.509,981.514 776.513,1203.82C737.79,1005.73 644.136,1004.94 644.136,1004.94Z" style="fill:rgb(60,150,43);"/>
        </g>
        <g transform="matrix(5.78955,0,0,2.22561,-1017.42,-1926.4)">
            <path d="M329.647,1422.55C326.56,1422.55 323.835,1420.54 321.474,1416.53C319.112,1412.51 317.261,1406.78 315.922,1399.33C314.583,1391.88 313.914,1383.08 313.914,1372.92C313.914,1362.66 314.583,1353.88 315.922,1346.58C317.261,1339.27 319.112,1333.66 321.474,1329.74C323.835,1325.82 326.56,1323.86 329.647,1323.86C332.734,1323.86 335.458,1325.82 337.82,1329.74C340.182,1333.66 342.023,1339.27 343.343,1346.58C344.664,1353.88 345.324,1362.66 345.324,1372.92C345.324,1383.08 344.664,1391.88 343.343,1399.33C342.023,1406.78 340.182,1412.51 337.82,1416.53C335.458,1420.54 332.734,1422.55 329.647,1422.55ZM329.647,1411.38C331.767,1411.38 333.626,1409.78 335.226,1406.59C336.825,1403.39 338.071,1398.92 338.964,1393.16C339.856,1387.4 340.303,1380.66 340.303,1372.92C340.303,1365.08 339.856,1358.33 338.964,1352.67C338.071,1347.01 336.825,1342.66 335.226,1339.61C333.626,1336.56 331.767,1335.04 329.647,1335.04C327.49,1335.04 325.611,1336.56 324.012,1339.61C322.413,1342.66 321.176,1347.01 320.302,1352.67C319.428,1358.33 318.991,1365.08 318.991,1372.92C318.991,1380.66 319.428,1387.4 320.302,1393.16C321.176,1398.92 322.413,1403.39 324.012,1406.59C325.611,1409.78 327.49,1411.38 329.647,1411.38Z" style="fill-rule:nonzero;"/>
            <path d="M363.4,1422.55C360.871,1422.55 358.509,1421.27 356.314,1418.7C354.12,1416.14 352.205,1412.73 350.568,1408.47L353.469,1399.62C354.808,1403.2 356.342,1406.05 358.072,1408.18C359.801,1410.31 361.615,1411.38 363.511,1411.38C365.855,1411.38 367.686,1410 369.007,1407.24C370.327,1404.48 370.987,1400.83 370.987,1396.28C370.987,1393.09 370.718,1390.55 370.178,1388.66C369.639,1386.78 368.914,1385.18 368.003,1383.87C367.091,1382.57 366.059,1381.24 364.906,1379.88L359.718,1373.93C358.565,1372.67 357.421,1371.01 356.287,1368.92C355.152,1366.84 354.204,1364.23 353.441,1361.09C352.679,1357.94 352.298,1354.05 352.298,1349.4C352.298,1344.47 352.8,1340.09 353.804,1336.27C354.808,1332.45 356.184,1329.42 357.932,1327.2C359.68,1324.98 361.67,1323.86 363.902,1323.86C366.096,1323.86 368.133,1324.95 370.011,1327.13C371.889,1329.3 373.479,1332.18 374.781,1335.76L372.159,1343.89C371.043,1341.18 369.806,1339.03 368.449,1337.43C367.091,1335.84 365.576,1335.04 363.902,1335.04C361.893,1335.04 360.285,1336.25 359.076,1338.66C357.867,1341.08 357.263,1344.37 357.263,1348.53C357.263,1351.53 357.56,1353.98 358.156,1355.86C358.751,1357.75 359.513,1359.3 360.443,1360.51C361.373,1361.72 362.321,1362.9 363.288,1364.06L368.421,1369.87C369.871,1371.42 371.155,1373.28 372.27,1375.45C373.386,1377.63 374.279,1380.32 374.948,1383.51C375.618,1386.7 375.953,1390.62 375.953,1395.27C375.953,1400.3 375.451,1404.89 374.446,1409.05C373.442,1413.21 372.001,1416.5 370.123,1418.92C368.244,1421.34 366.003,1422.55 363.4,1422.55Z" style="fill-rule:nonzero;"/>
            <path d="M383.038,1420.81L383.038,1325.6L388.896,1325.6L395.814,1375.82C396.26,1379.01 396.697,1382.28 397.125,1385.61C397.553,1388.95 397.971,1392.27 398.38,1395.56L398.603,1395.56C399.05,1392.27 399.468,1388.95 399.859,1385.61C400.249,1382.28 400.668,1379.01 401.114,1375.82L407.976,1325.6L413.778,1325.6L413.778,1420.81L409.259,1420.81L409.259,1369.58C409.259,1366.77 409.297,1363.72 409.371,1360.43C409.445,1357.14 409.529,1353.81 409.622,1350.42C409.715,1347.03 409.799,1343.94 409.873,1341.13L409.65,1341.13L406.749,1362.9L399.942,1411.23L396.762,1411.23L389.956,1362.9L387.055,1341.13L386.832,1341.13C386.906,1343.94 386.999,1347.03 387.111,1350.42C387.222,1353.81 387.306,1357.14 387.362,1360.43C387.417,1363.72 387.445,1366.77 387.445,1369.58L387.445,1420.81L383.038,1420.81Z" style="fill-rule:nonzero;"/>
            <path d="M436.82,1422.55C434.886,1422.55 433.11,1421.82 431.492,1420.37C429.874,1418.92 428.47,1416.58 427.28,1413.33C426.089,1410.09 425.169,1405.84 424.518,1400.56C423.867,1395.29 423.542,1388.83 423.542,1381.19L423.542,1325.6L428.451,1325.6L428.451,1381.62C428.451,1389.17 428.823,1395.1 429.567,1399.4C430.311,1403.71 431.306,1406.78 432.552,1408.62C433.798,1410.46 435.22,1411.38 436.82,1411.38C438.419,1411.38 439.86,1410.46 441.143,1408.62C442.427,1406.78 443.44,1403.71 444.184,1399.4C444.928,1395.1 445.3,1389.17 445.3,1381.62L445.3,1325.6L450.042,1325.6L450.042,1381.19C450.042,1388.83 449.707,1395.29 449.038,1400.56C448.368,1405.84 447.438,1410.09 446.248,1413.33C445.058,1416.58 443.663,1418.92 442.064,1420.37C440.465,1421.82 438.717,1422.55 436.82,1422.55Z" style="fill-rule:nonzero;"/>
            <path d="M459.805,1420.81L459.805,1325.6L464.882,1325.6L477.825,1384.53L481.787,1404.41L482.01,1404.41C481.898,1399.57 481.768,1394.52 481.619,1389.24C481.47,1383.97 481.396,1378.82 481.396,1373.79L481.396,1325.6L486.027,1325.6L486.027,1420.81L480.95,1420.81L468.006,1361.74L464.045,1342L463.822,1342C463.971,1346.84 464.11,1351.8 464.241,1356.88C464.371,1361.96 464.436,1367.01 464.436,1372.05L464.436,1420.81L459.805,1420.81Z" style="fill-rule:nonzero;"/>
            <path d="M495.957,1420.81L495.957,1325.6L505.163,1325.6C508.919,1325.6 512.09,1327.42 514.675,1331.05C517.26,1334.67 519.222,1340.02 520.561,1347.08C521.9,1354.15 522.569,1362.76 522.569,1372.92C522.569,1382.98 521.9,1391.59 520.561,1398.75C519.222,1405.91 517.278,1411.38 514.731,1415.15C512.183,1418.92 509.068,1420.81 505.386,1420.81L495.957,1420.81ZM500.867,1410.36L504.828,1410.36C507.617,1410.36 509.951,1408.88 511.83,1405.93C513.708,1402.98 515.121,1398.72 516.07,1393.16C517.018,1387.6 517.492,1380.85 517.492,1372.92C517.492,1364.88 517.018,1358.14 516.07,1352.67C515.121,1347.2 513.708,1343.07 511.83,1340.26C509.951,1337.46 507.617,1336.05 504.828,1336.05L500.867,1336.05L500.867,1410.36Z" style="fill-rule:nonzero;"/>
            <path d="M524.968,1420.81L537.298,1325.6L542.877,1325.6L555.206,1420.81L549.962,1420.81L543.714,1367.98C543.081,1362.66 542.468,1357.36 541.873,1352.09C541.277,1346.82 540.682,1341.47 540.087,1336.05L539.864,1336.05C539.306,1341.47 538.739,1346.82 538.163,1352.09C537.586,1357.36 536.963,1362.66 536.294,1367.98L529.989,1420.81L524.968,1420.81ZM531.551,1392.22L531.551,1382.06L548.456,1382.06L548.456,1392.22L531.551,1392.22Z" style="fill-rule:nonzero;"/>
        </g>
        <g transform="matrix(1,0,0,0.5,432.254,524.37)">
            <path d="M734.246,811.26C728.579,808.994 723.962,806.494 720.396,803.76C716.829,801.027 714.029,797.294 711.996,792.56C709.962,787.827 708.946,781.727 708.946,774.26C708.946,766.527 709.962,759.727 711.996,753.86C714.029,747.994 716.896,743.46 720.596,740.26C724.296,737.06 728.579,735.46 733.446,735.46C738.112,735.46 742.396,737.427 746.296,741.36C750.196,745.294 753.279,750.794 755.546,757.86C757.812,764.927 758.946,772.994 758.946,782.06L755.246,782.06C755.246,774.194 754.279,767.26 752.346,761.26C750.412,755.26 747.779,750.627 744.446,747.36C741.112,744.094 737.412,742.46 733.346,742.46C729.746,742.46 726.379,743.594 723.246,745.86C720.112,748.127 717.562,751.594 715.596,756.26C713.629,760.927 712.646,766.794 712.646,773.86C712.646,780.26 713.579,785.36 715.446,789.16C717.312,792.96 719.746,795.86 722.746,797.86C725.746,799.86 729.946,801.994 735.346,804.26C740.812,806.527 745.062,808.694 748.096,810.76C751.129,812.827 753.696,816.26 755.796,821.06C757.896,825.86 758.946,832.594 758.946,841.26C758.946,849.927 757.796,857.227 755.496,863.16C753.196,869.094 750.146,873.527 746.346,876.46C742.546,879.394 738.412,880.86 733.946,880.86C728.412,880.86 723.546,878.794 719.346,874.66C715.146,870.527 711.929,864.694 709.696,857.16C707.462,849.627 706.346,840.994 706.346,831.26L710.046,831.26C710.046,839.794 710.996,847.26 712.896,853.66C714.796,860.06 717.546,865.027 721.146,868.56C724.746,872.094 729.012,873.86 733.946,873.86C740.079,873.86 745.162,870.927 749.196,865.06C753.229,859.194 755.246,851.194 755.246,841.06C755.246,834.127 754.379,828.794 752.646,825.06C750.912,821.327 748.729,818.627 746.096,816.96C743.462,815.294 739.512,813.394 734.246,811.26Z" style="fill-rule:nonzero;"/>
            <path d="M894.846,738.66L894.846,746.06L868.546,746.06L868.546,877.86L864.946,877.86L864.946,746.06L838.646,746.06L838.646,738.66L894.846,738.66Z" style="fill-rule:nonzero;"/>
            <path d="M972.646,738.66L976.346,738.66L976.346,824.66C976.346,833.46 977.446,841.594 979.646,849.06C981.846,856.527 984.812,862.46 988.546,866.86C992.279,871.26 996.346,873.46 1000.75,873.46C1005.15,873.46 1009.21,871.26 1012.95,866.86C1016.68,862.46 1019.65,856.527 1021.85,849.06C1024.05,841.594 1025.15,833.46 1025.15,824.66L1025.15,738.66L1028.85,738.66L1028.85,824.66C1028.85,834.794 1027.58,844.16 1025.05,852.76C1022.51,861.36 1019.1,868.194 1014.8,873.26C1010.5,878.327 1005.81,880.86 1000.75,880.86C995.679,880.86 990.996,878.327 986.696,873.26C982.396,868.194 978.979,861.36 976.446,852.76C973.912,844.16 972.646,834.794 972.646,824.66L972.646,738.66Z" style="fill-rule:nonzero;"/>
            <path d="M1134.05,738.66C1139.11,738.66 1143.8,741.194 1148.1,746.26C1152.4,751.327 1155.81,758.16 1158.35,766.76C1160.88,775.36 1162.15,784.727 1162.15,794.86L1162.15,821.66C1162.15,831.794 1160.88,841.16 1158.35,849.76C1155.81,858.36 1152.4,865.194 1148.1,870.26C1143.8,875.327 1139.11,877.86 1134.05,877.86L1108.35,877.86L1108.35,738.66L1134.05,738.66ZM1158.45,794.86C1158.45,786.06 1157.35,777.927 1155.15,770.46C1152.95,762.994 1149.96,757.06 1146.2,752.66C1142.43,748.26 1138.35,746.06 1133.95,746.06L1112.05,746.06L1112.05,870.46L1133.95,870.46C1138.35,870.46 1142.43,868.26 1146.2,863.86C1149.96,859.46 1152.95,853.527 1155.15,846.06C1157.35,838.594 1158.45,830.46 1158.45,821.66L1158.45,794.86Z" style="fill-rule:nonzero;"/>
            <path d="M1291.35,738.66L1291.35,746.06L1270.55,746.06L1270.55,870.46L1291.35,870.46L1291.35,877.86L1246.25,877.86L1246.25,870.46L1266.95,870.46L1266.95,746.06L1246.25,746.06L1246.25,738.66L1291.35,738.66Z" style="fill-rule:nonzero;"/>
            <path d="M1402.75,735.66C1407.95,735.66 1412.75,738.227 1417.15,743.36C1421.55,748.494 1425.03,755.46 1427.6,764.26C1430.16,773.06 1431.45,782.66 1431.45,793.06L1431.45,823.46C1431.45,833.86 1430.16,843.46 1427.6,852.26C1425.03,861.06 1421.55,868.027 1417.15,873.16C1412.75,878.294 1407.95,880.86 1402.75,880.86C1397.55,880.86 1392.75,878.294 1388.35,873.16C1383.95,868.027 1380.46,861.06 1377.9,852.26C1375.33,843.46 1374.05,833.86 1374.05,823.46L1374.05,793.06C1374.05,782.66 1375.33,773.06 1377.9,764.26C1380.46,755.46 1383.95,748.494 1388.35,743.36C1392.75,738.227 1397.55,735.66 1402.75,735.66ZM1377.75,823.46C1377.75,832.527 1378.86,840.894 1381.1,848.56C1383.33,856.227 1386.36,862.294 1390.2,866.76C1394.03,871.227 1398.21,873.46 1402.75,873.46C1407.28,873.46 1411.46,871.227 1415.3,866.76C1419.13,862.294 1422.16,856.227 1424.4,848.56C1426.63,840.894 1427.75,832.527 1427.75,823.46L1427.75,793.06C1427.75,783.994 1426.63,775.627 1424.4,767.96C1422.16,760.294 1419.13,754.227 1415.3,749.76C1411.46,745.294 1407.28,743.06 1402.75,743.06C1398.21,743.06 1394.03,745.294 1390.2,749.76C1386.36,754.227 1383.33,760.294 1381.1,767.96C1378.86,775.627 1377.75,783.994 1377.75,793.06L1377.75,823.46Z" style="fill-rule:nonzero;"/>
        </g>
        <g transform="matrix(1.00295,0,0,0.277542,-2.21415,661.53)">
            <rect x="799.853" y="952.901" width="289.147" height="18.015"/>
        </g>
        <g transform="matrix(1.00295,0,0,0.277542,1107.79,661.53)">
            <rect x="799.853" y="952.901" width="289.147" height="18.015"/>
        </g>
    </g>
</svg>
